<?xml version="1.0" encoding="UTF-8" standalone="no"?>
<svg
   xmlns:dc="http://purl.org/dc/elements/1.1/"
   xmlns:cc="http://creativecommons.org/ns#"
   xmlns:rdf="http://www.w3.org/1999/02/22-rdf-syntax-ns#"
   xmlns:svg="http://www.w3.org/2000/svg"
   xmlns="http://www.w3.org/2000/svg"
   viewBox="0 0 527.8573 517.40533"
   height="517.40533"
   width="527.8573"
   xml:space="preserve"
   id="svg2"
   version="1.1"><metadata
     id="metadata8"><rdf:RDF><cc:Work
         rdf:about=""><dc:format>image/svg+xml</dc:format><dc:type
           rdf:resource="http://purl.org/dc/dcmitype/StillImage" /></cc:Work></rdf:RDF></metadata><defs
     id="defs6"><clipPath
       id="clipPath18"
       clipPathUnits="userSpaceOnUse"><path
         id="path16"
         d="M 0,388.054 H 395.893 V 0 H 0 Z" /></clipPath></defs><g
     transform="matrix(1.3333333,0,0,-1.3333333,0,517.40533)"
     id="g10"><g
       id="g12"><g
         clip-path="url(#clipPath18)"
         id="g14"><g
           transform="translate(89.8143,383.3183)"
           id="g20"><path
             id="path22"
             style="fill:#ffffff;fill-opacity:1;fill-rule:nonzero;stroke:none"
             d="m 0,0 c -10.742,-3.517 -20.643,-9.294 -29.672,-16.094 -13.135,-9.892 -24.619,-22.093 -33.026,-36.225 -5.647,-9.491 -9.876,-19.784 -13.077,-30.354 -12.307,-40.627 -8.699,-86.668 13.478,-122.864 22.177,-36.197 63.68,-60.868 106.092,-59.073 30.031,1.272 58.113,14.874 83.973,30.196 12.592,7.46 25.47,16.001 32.111,29.043 5.135,10.086 5.94,21.72 7.774,32.887 2.156,13.13 5.849,25.999 7.394,39.214 3.346,28.616 -3.86,58.347 -19.937,82.256 C 139.034,-27.106 114.219,-9.215 86.456,-1.517 74.71,1.739 62.541,3.218 50.383,4.085 33.468,5.29 16.116,5.277 0,0" /></g><g
           transform="translate(111.1904,215.1243)"
           id="g24"><path
             id="path26"
             style="fill:#b4c6cc;fill-opacity:1;fill-rule:nonzero;stroke:none"
             d="m 0,0 c -0.82,9.381 -1.118,19.354 3.394,27.619 3.262,5.972 8.691,10.392 13.32,15.38 8.604,9.272 14.804,21.882 12.685,34.352 -2.119,12.471 -14.958,23.274 -27.151,19.91 -8.292,-2.288 -13.811,-9.816 -19.824,-15.967 -6.012,-6.151 -14.919,-11.547 -22.816,-8.137 -6.623,2.859 -9.541,11.237 -8.015,18.288 1.526,7.05 6.517,12.861 12.028,17.516 15.201,12.839 36.184,19.06 55.681,15.083 C 38.798,120.067 56.119,105.427 61.918,86.393 67.716,67.358 60.922,44.768 44.743,33.184 40.504,30.15 35.681,27.807 32.166,23.957 26.029,17.234 25.075,7.227 26.158,-1.812 27.017,-8.987 28.413,-17.661 22.801,-22.213 17.701,-26.351 9.518,-23.82 5.5,-18.626 1.481,-13.431 0.572,-6.542 0,0" /></g><g
           transform="translate(134.1064,150.0151)"
           id="g28"><path
             id="path30"
             style="fill:#b4c6cc;fill-opacity:1;fill-rule:nonzero;stroke:none"
             d="m 0,0 c 1.706,0.817 3.206,2.029 4.466,3.439 4.833,5.408 5.419,14.803 -0.08,19.531 -3.511,3.019 -8.512,3.574 -13.134,3.306 -1.203,-0.069 -2.427,-0.191 -3.534,-0.665 -1.437,-0.617 -2.571,-1.784 -3.489,-3.05 C -19.448,17.492 -19.948,10.144 -16.499,4.917 -13.05,-0.309 -5.647,-2.706 0,0" /></g><g
           transform="translate(191.3661,50.2495)"
           id="g32"><path
             id="path34"
             style="fill:#e9f8ff;fill-opacity:1;fill-rule:nonzero;stroke:none"
             d="m 0,0 c 4.448,-7.057 13.058,-10.409 21.34,-11.408 8.282,-0.999 16.694,-0.109 24.994,-0.942 7.895,-0.792 20.568,1.565 25.457,-4.669 9.617,-12.265 17.325,-22.091 24.711,-33.231 12.931,12.337 19.289,25.231 30.545,36.241 16.649,0.994 33.299,1.988 49.948,2.982 5.46,0.326 11.368,0.83 15.453,4.466 5.31,4.727 5.532,12.797 5.468,19.906 -0.276,30.223 1.434,60.464 5.114,90.462 2.339,19.072 3.95,42.077 -11.366,53.678 -8.822,6.683 -20.701,7.202 -31.766,7.452 -19.774,0.446 -39.548,0.891 -59.323,1.337 -24.488,0.552 -49.222,1.083 -73.219,-3.829 -5.948,-1.218 -11.974,-2.833 -16.935,-6.332 C -0.396,148.482 -3.585,134.051 -5.27,120.92 -9.809,85.55 -9.474,49.559 -4.279,14.279 -3.549,9.326 -2.67,4.236 0,0" /></g><g
           transform="translate(211.5051,154.2076)"
           id="g36"><path
             id="path38"
             style="fill:#46a5c8;fill-opacity:1;fill-rule:nonzero;stroke:none"
             d="m 0,0 c -5.83,-3.34 -8.093,-10.951 -7.046,-17.588 1.047,-6.636 4.74,-12.52 8.481,-18.1 15.309,-22.832 32.853,-44.164 52.3,-63.592 2.94,-2.937 6.609,-6.062 10.705,-5.361 2.521,0.431 4.548,2.247 6.407,4.001 31.792,29.99 59.055,64.771 80.585,102.804 2.311,4.083 4.593,8.306 5.343,12.936 1.272,7.845 -2.002,15.68 -5.748,22.688 -2.521,4.715 -7.038,10.019 -12.108,8.32 -1.687,-0.565 -3.023,-1.846 -4.268,-3.117 C 126.133,34.301 119.019,24.357 111.942,14.459 93.896,-10.784 75.85,-36.027 57.804,-61.269 50.031,-44.076 40.255,-27.79 28.737,-12.845 25.227,-8.291 21.441,-3.762 16.452,-0.904 11.463,1.954 4.989,2.858 0,0" /></g><g
           transform="translate(66.7092,288.994)"
           id="g40"><path
             id="path42"
             style="fill:#000000;fill-opacity:1;fill-rule:nonzero;stroke:none"
             d="m 0,0 c 0.185,-0.024 0.626,-0.081 1.318,-0.169 0.469,-0.052 1.056,-0.076 1.75,-0.126 0.696,0.005 1.502,-0.036 2.411,0.037 1.816,0.1 4.057,0.396 6.576,1.159 1.257,0.384 2.584,0.877 3.933,1.54 1.359,0.64 2.735,1.459 4.093,2.447 0.695,0.485 1.331,1.03 2.002,1.605 0.33,0.309 0.664,0.622 1.001,0.94 0.291,0.293 0.633,0.639 0.942,0.976 1.266,1.365 2.485,2.914 3.816,4.521 1.342,1.584 2.77,3.313 4.64,4.713 0.463,0.353 0.909,0.743 1.401,1.074 0.511,0.304 1.025,0.61 1.545,0.918 0.262,0.15 0.516,0.321 0.79,0.453 l 0.841,0.367 c 0.565,0.239 1.128,0.505 1.711,0.726 2.369,0.78 4.908,1.331 7.56,1.408 2.636,0.038 5.388,-0.138 8.079,-0.907 5.417,-1.408 10.712,-4.366 14.798,-9.282 3.769,-4.765 6.075,-11.254 6.054,-17.882 0.043,-6.642 -1.889,-13.479 -5.656,-19.453 -0.503,-0.725 -1.008,-1.454 -1.515,-2.184 -0.555,-0.713 -1.154,-1.413 -1.736,-2.121 -0.591,-0.678 -1.196,-1.243 -1.795,-1.873 -0.697,-0.714 -1.331,-1.246 -2.017,-1.841 -2.701,-2.297 -5.52,-4.305 -7.729,-6.783 -2.225,-2.47 -3.916,-5.445 -5.06,-8.684 -1.143,-3.242 -1.803,-6.723 -2.099,-10.289 -0.589,-7.153 0.114,-14.578 0.952,-22.058 0.453,-3.685 1.135,-7.346 2.809,-10.479 0.207,-0.399 0.427,-0.765 0.651,-1.112 0.19,-0.328 0.569,-0.812 0.776,-1.1 0.537,-0.644 1.121,-1.268 1.812,-1.783 1.345,-1.068 2.973,-1.802 4.639,-2.185 1.672,-0.333 3.422,-0.28 4.89,0.403 0.198,0.071 0.365,0.16 0.508,0.257 0.158,0.101 0.303,0.16 0.48,0.285 l 0.564,0.46 0.141,0.115 c 0.067,0.052 -0.04,-0.037 0.054,0.053 l 0.216,0.218 c 0.569,0.591 1.024,1.305 1.386,2.088 1.457,3.173 1.351,7.177 1.449,11.026 0.046,3.88 -0.068,7.803 -0.01,11.756 0.061,3.947 0.283,7.953 1.184,11.881 0.893,3.922 2.528,7.743 5.372,10.803 0.71,0.748 1.411,1.306 2.204,2.038 l 1.236,0.887 1.294,0.788 c 1.757,0.989 3.618,1.726 5.483,2.37 3.724,1.302 7.526,2.225 11.001,3.831 1.721,0.794 3.383,1.79 4.845,2.988 1.469,1.204 2.783,2.591 3.938,4.098 2.334,3.01 3.951,6.519 5.084,10.124 0.567,1.82 1.012,3.622 1.333,5.511 0.246,1.858 0.547,3.728 0.596,5.602 0.155,1.87 0.071,3.743 0.035,5.602 l -0.229,2.779 c -0.066,0.925 -0.259,1.836 -0.381,2.751 -0.6,3.643 -1.479,7.221 -2.773,10.617 -2.498,6.817 -6.219,13.036 -10.807,18.255 -0.552,0.675 -1.146,1.296 -1.749,1.899 -0.61,0.607 -1.156,1.234 -1.812,1.818 -0.651,0.587 -1.3,1.171 -1.947,1.754 -0.582,0.543 -1.315,1.056 -1.955,1.59 -1.292,1.097 -2.723,1.997 -4.078,2.975 -1.439,0.855 -2.813,1.795 -4.294,2.53 C 70.923,49.06 58.062,51.179 46.581,50.229 35.048,49.244 24.877,45.118 17.275,39.65 15.377,38.271 13.644,36.787 12.071,35.273 11.687,34.889 11.307,34.508 10.93,34.131 10.561,33.727 10.196,33.325 9.834,32.928 9.126,32.163 8.491,31.331 7.86,30.54 5.423,27.29 3.6,23.988 2.333,20.851 -0.212,14.557 -0.685,9.097 -0.555,5.472 -0.542,5.016 -0.529,4.586 -0.518,4.183 -0.481,3.783 -0.448,3.41 -0.417,3.064 -0.366,2.372 -0.295,1.788 -0.208,1.318 -0.099,0.628 -0.03,0.188 0,0 m -0.278,-0.162 c 0,0 -0.102,0.481 -0.3,1.412 -0.112,0.461 -0.215,1.044 -0.305,1.75 -0.051,0.351 -0.106,0.73 -0.164,1.136 -0.034,0.408 -0.07,0.844 -0.109,1.306 -0.301,3.682 -0.037,9.271 2.315,15.861 1.154,3.294 2.957,6.759 5.404,10.198 0.638,0.843 1.266,1.711 1.998,2.548 0.353,0.408 0.71,0.82 1.069,1.236 0.388,0.41 0.78,0.824 1.175,1.242 1.606,1.628 3.36,3.208 5.298,4.696 7.73,5.955 18.285,10.312 30.255,11.464 5.975,0.536 12.288,0.348 18.656,-0.865 6.358,-1.228 12.782,-3.423 18.804,-6.792 1.533,-0.792 2.959,-1.793 4.445,-2.709 1.403,-1.041 2.878,-2.004 4.214,-3.169 0.684,-0.581 1.364,-1.088 2.044,-1.747 0.631,-0.6 1.264,-1.202 1.899,-1.805 0.637,-0.599 1.237,-1.31 1.859,-1.963 0.625,-0.661 1.234,-1.335 1.785,-2.047 4.621,-5.55 8.285,-12.074 10.654,-19.152 1.23,-3.524 2.031,-7.22 2.54,-10.963 0.518,-3.746 0.644,-7.573 0.354,-11.389 -0.287,-3.815 -0.895,-7.642 -2.097,-11.33 -1.172,-3.69 -2.884,-7.254 -5.248,-10.399 -1.182,-1.569 -2.536,-3.023 -4.059,-4.292 -1.533,-1.273 -3.222,-2.306 -5.025,-3.158 -3.595,-1.695 -7.42,-2.65 -11.064,-3.962 -3.644,-1.322 -7.096,-3.057 -9.633,-6.018 -1.172,-1.41 -2.274,-2.97 -3.008,-4.726 -0.189,-0.434 -0.394,-0.861 -0.57,-1.301 l -0.437,-1.359 c -0.329,-0.893 -0.492,-1.843 -0.711,-2.772 -0.761,-3.758 -0.885,-7.651 -0.843,-11.54 0.041,-3.895 0.26,-7.806 0.311,-11.75 0.016,-1.975 -0.008,-3.946 -0.124,-5.946 -0.152,-2.025 -0.468,-4.096 -1.344,-6.089 -0.437,-0.988 -1.02,-1.95 -1.785,-2.776 l -0.291,-0.305 c 0.011,0.001 -0.179,-0.176 -0.21,-0.198 l -0.139,-0.117 -0.556,-0.47 c -0.464,-0.306 -1.024,-0.719 -1.527,-0.911 -2.065,-0.99 -4.376,-1.071 -6.481,-0.685 -2.102,0.439 -4.093,1.309 -5.779,2.618 -0.858,0.633 -1.613,1.406 -2.307,2.233 -0.361,0.484 -0.584,0.751 -0.897,1.24 -0.303,0.454 -0.579,0.908 -0.817,1.358 -1.984,3.648 -2.72,7.637 -3.232,11.434 -0.916,7.55 -1.726,15.114 -1.182,22.67 0.286,3.765 0.916,7.534 2.19,11.113 1.257,3.576 3.161,6.953 5.683,9.756 2.529,2.821 5.472,4.905 8.037,7.089 0.627,0.532 1.316,1.115 1.821,1.633 0.591,0.611 1.246,1.217 1.779,1.827 0.505,0.61 1.01,1.219 1.512,1.826 0.467,0.661 0.932,1.321 1.396,1.978 3.497,5.422 5.277,11.706 5.349,17.756 0.05,3.03 -0.402,6.008 -1.302,8.773 -0.178,0.709 -0.481,1.366 -0.751,2.034 l -0.407,0.998 c -0.155,0.322 -0.335,0.631 -0.5,0.947 L 68.862,8.206 68.737,8.44 68.675,8.558 c -0.003,0.009 -0.082,0.145 -0.022,0.051 l -0.317,0.46 c -0.424,0.607 -0.838,1.234 -1.264,1.815 -1.665,2.078 -3.812,3.931 -6.06,5.373 -0.579,0.344 -1.154,0.686 -1.726,1.027 -0.604,0.283 -1.204,0.564 -1.8,0.843 -0.585,0.309 -1.22,0.487 -1.829,0.716 -0.615,0.216 -1.217,0.462 -1.849,0.593 -0.624,0.158 -1.245,0.315 -1.861,0.472 -0.628,0.096 -1.252,0.192 -1.871,0.286 -0.618,0.122 -1.24,0.142 -1.858,0.178 -0.616,0.017 -1.231,0.12 -1.839,0.067 C 43.935,20.437 41.595,19.993 39.4,19.345 35.014,17.897 31.669,15.063 29.029,11.916 27.674,10.371 26.39,8.83 25.034,7.447 24.69,7.095 24.367,6.78 23.99,6.429 23.64,6.125 23.294,5.825 22.953,5.528 22.23,4.953 21.499,4.376 20.765,3.906 19.306,2.929 17.842,2.134 16.407,1.526 14.983,0.893 13.594,0.437 12.284,0.092 9.66,-0.589 7.355,-0.814 5.497,-0.828 c -0.93,-0.029 -1.75,0.051 -2.456,0.08 -0.704,0.084 -1.297,0.138 -1.77,0.212 l -1.527,0.272 z" /></g><g
           transform="translate(368.5491,172.8607)"
           id="g44"><path
             id="path46"
             style="fill:#000000;fill-opacity:1;fill-rule:nonzero;stroke:none"
             d="m 0,0 c -0.016,1.775 -0.541,3.503 -1.26,5.111 -0.724,1.614 -1.635,3.134 -2.513,4.667 l -5.295,9.193 -2.647,4.596 c -0.879,1.526 -1.83,3.04 -3.109,4.256 -0.638,0.601 -1.366,1.119 -2.183,1.436 -0.817,0.306 -1.717,0.392 -2.577,0.241 -1.745,-0.313 -3.157,-1.538 -4.304,-2.84 -1.159,-1.325 -2.135,-2.806 -3.186,-4.228 l -3.107,-4.299 -6.215,-8.597 -12.399,-17.217 -49.493,-68.943 -0.814,-1.133 -0.833,1.139 -14.014,19.159 -13.968,19.191 -6.976,9.602 c -2.368,3.178 -4.504,6.537 -7.245,8.948 -2.701,2.456 -6.277,3.485 -9.638,2.509 -1.668,-0.503 -3.236,-1.399 -4.639,-2.533 -1.398,-1.152 -2.568,-2.585 -3.575,-4.111 -0.995,-1.543 -1.701,-3.253 -2.215,-4.996 l -0.302,-1.327 c -0.104,-0.444 -0.105,-0.855 -0.17,-1.282 l -0.082,-0.636 0.005,-0.741 0.006,-0.742 0.002,-0.371 0.001,-0.093 c -0.007,0.159 0.004,-0.005 0.005,0.008 l 0.019,-0.174 c 0.312,-3.703 1.545,-7.314 3.356,-10.661 3.637,-6.739 9.148,-12.439 14.341,-18.425 10.385,-11.971 20.533,-24.149 30.26,-36.658 2.439,-3.121 4.854,-6.259 7.253,-9.412 l 3.581,-4.739 c 1.202,-1.575 2.339,-3.201 3.6,-4.606 1.257,-1.413 2.689,-2.616 4.347,-3.257 1.669,-0.608 3.513,-0.709 5.294,-0.241 3.594,0.907 6.779,3.367 9.561,6.005 5.588,5.525 10.671,11.583 15.461,17.852 4.793,6.274 9.302,12.772 13.819,19.268 l 27.025,39.03 13.444,19.562 6.711,9.788 c 1.118,1.63 2.249,3.26 3.142,5.026 C -0.636,-3.918 0.008,-1.989 0,0 m 0,0 c 0.014,-1.989 -0.623,-3.923 -1.509,-5.684 -0.888,-1.771 -2.014,-3.405 -3.126,-5.039 l -6.679,-9.811 -13.335,-19.636 -26.534,-39.366 c -8.809,-13.117 -17.67,-26.37 -28.834,-37.78 -1.438,-1.431 -2.967,-2.75 -4.651,-3.916 -1.675,-1.165 -3.538,-2.137 -5.588,-2.687 -2.037,-0.573 -4.324,-0.517 -6.379,0.21 -2.067,0.761 -3.755,2.174 -5.142,3.681 -1.405,1.522 -2.562,3.131 -3.786,4.678 l -3.65,4.672 c -2.443,3.105 -4.903,6.198 -7.386,9.271 -9.939,12.289 -20.096,24.399 -30.584,36.218 -5.154,5.922 -10.83,11.69 -14.782,18.923 -1.96,3.594 -3.371,7.613 -3.736,11.81 l -0.023,0.195 c -0.004,0.074 -0.004,-0.028 -0.013,0.192 l -0.001,0.092 -0.004,0.372 -0.007,0.741 -0.008,0.742 0.086,0.839 c 0.072,0.551 0.099,1.136 0.221,1.656 l 0.361,1.565 c 0.604,2.044 1.438,4.019 2.594,5.803 1.17,1.768 2.535,3.424 4.2,4.79 1.673,1.347 3.589,2.449 5.72,3.079 2.133,0.63 4.484,0.61 6.637,0.018 0.538,-0.177 1.072,-0.291 1.607,-0.533 0.419,-0.173 0.978,-0.455 1.466,-0.733 0.955,-0.547 1.829,-1.198 2.629,-1.903 3.21,-2.866 5.306,-6.319 7.626,-9.483 l 6.882,-9.67 13.744,-19.352 13.7,-19.385 -1.647,0.007 50.609,68.128 12.626,17.051 6.298,8.537 3.149,4.268 c 1.065,1.41 2.053,2.881 3.238,4.21 1.17,1.304 2.617,2.531 4.406,2.853 0.882,0.151 1.8,0.06 2.639,-0.257 0.834,-0.326 1.572,-0.856 2.215,-1.466 1.288,-1.233 2.237,-2.757 3.112,-4.289 l 2.632,-4.605 5.265,-9.21 C -2.869,8.26 -1.963,6.736 -1.244,5.119 -0.53,3.507 -0.01,1.775 0,0" /></g><g
           transform="translate(188.3661,54.2494)"
           id="g48"><path
             id="path50"
             style="fill:#000000;fill-opacity:1;fill-rule:nonzero;stroke:none"
             d="m 0,0 c -1.62,2.571 -2.606,5.486 -3.27,8.438 -0.669,2.958 -1.06,5.968 -1.485,8.967 -0.87,5.999 -1.546,12.024 -2.129,18.057 -1.127,12.071 -1.717,24.193 -1.714,36.32 -0.056,12.128 0.597,24.248 1.614,36.334 0.299,3.018 0.555,6.045 0.92,9.051 0.335,3.009 0.681,6.031 1.159,9.032 0.951,5.995 2.338,11.992 4.872,17.587 1.27,2.787 2.846,5.459 4.808,7.846 l 1.541,1.732 1.705,1.612 c 0.587,0.492 1.188,0.944 1.782,1.418 0.648,0.495 1.277,0.899 1.943,1.309 5.333,3.226 11.43,4.645 17.365,5.813 11.944,2.379 24.106,3.451 36.247,3.877 12.148,0.425 24.293,0.212 36.41,0.013 l 18.178,-0.302 18.178,-0.367 18.177,-0.367 c 6.043,-0.135 12.169,-0.152 18.308,-1.009 3.064,-0.428 6.128,-1.094 9.101,-2.126 0.742,-0.262 1.486,-0.521 2.207,-0.848 l 1.091,-0.465 1.062,-0.534 c 0.711,-0.334 1.412,-0.757 2.111,-1.178 0.736,-0.412 1.295,-0.856 1.934,-1.286 5.213,-3.789 8.942,-9.294 11.007,-15.227 2.045,-5.956 2.82,-12.205 2.859,-18.353 0.067,-6.163 -0.433,-12.265 -1.127,-18.327 -1.514,-12.03 -2.783,-24.041 -3.705,-36.11 -0.926,-12.062 -1.538,-24.148 -1.827,-36.243 -0.174,-6.051 -0.251,-12.09 -0.262,-18.146 -0.018,-3.022 0.059,-6.063 -0.152,-9.162 -0.198,-3.081 -0.691,-6.232 -1.929,-9.206 -0.624,-1.495 -1.449,-2.868 -2.568,-4.152 -1.017,-1.173 -2.349,-2.275 -3.752,-3.047 -2.844,-1.597 -6.01,-2.202 -9.065,-2.551 -3.082,-0.325 -6.097,-0.405 -9.122,-0.588 l -9.078,-0.488 -36.31,-1.951 0.396,0.175 -2.077,-2.085 -2.007,-2.157 c -1.307,-1.468 -2.586,-2.964 -3.83,-4.492 -2.486,-3.056 -4.856,-6.217 -7.255,-9.363 -1.2,-1.573 -2.405,-3.144 -3.637,-4.697 -0.619,-0.773 -1.226,-1.556 -1.863,-2.316 -0.634,-0.762 -1.251,-1.538 -1.906,-2.283 -0.654,-0.746 -1.28,-1.514 -1.956,-2.241 -0.672,-0.73 -1.321,-1.481 -2.012,-2.192 -0.691,-0.712 -1.368,-1.438 -2.071,-2.138 l -2.131,-2.078 -0.291,-0.283 -0.223,0.341 c -2.693,4.11 -5.499,8.148 -8.386,12.128 -2.888,3.979 -5.875,7.887 -8.878,11.783 l -4.524,5.829 -2.27,2.909 c -0.733,1.002 -1.579,1.836 -2.576,2.534 -2.045,1.317 -4.485,1.89 -6.897,2.214 -2.429,0.315 -4.889,0.363 -7.346,0.372 -2.459,0.011 -4.917,-0.042 -7.387,0.08 l -3.678,0.295 c -1.225,0.089 -2.452,0.146 -3.68,0.182 -4.914,0.152 -9.839,-0.011 -14.758,0.256 -4.907,0.255 -9.848,1.014 -14.421,2.878 -2.278,0.927 -4.481,2.08 -6.43,3.589 C 3.038,-3.891 1.319,-2.079 0,0 m 0,0 c 1.329,-2.073 3.054,-3.875 5.011,-5.359 1.953,-1.498 4.157,-2.639 6.434,-3.553 4.573,-1.839 9.503,-2.573 14.403,-2.804 4.912,-0.245 9.834,-0.059 14.756,-0.188 1.231,-0.031 2.462,-0.082 3.691,-0.166 l 3.679,-0.278 c 2.447,-0.109 4.91,-0.045 7.37,-0.044 2.461,0.002 4.932,-0.034 7.386,-0.34 2.437,-0.318 4.922,-0.881 7.045,-2.233 1.028,-0.704 1.947,-1.614 2.672,-2.599 l 2.283,-2.899 4.553,-5.809 c 6.04,-7.768 12.009,-15.607 17.5,-23.791 l -0.514,0.058 2.092,2.088 c 0.689,0.703 1.353,1.432 2.03,2.147 0.678,0.714 1.314,1.469 1.973,2.201 0.662,0.729 1.277,1.502 1.917,2.25 0.642,0.748 1.246,1.527 1.868,2.293 0.624,0.762 1.219,1.55 1.827,2.327 1.207,1.56 2.391,3.14 3.57,4.726 2.359,3.17 4.697,6.367 7.164,9.476 1.235,1.554 2.508,3.08 3.813,4.58 l 2.007,2.21 2.084,2.142 0.155,0.159 0.241,0.016 36.284,2.383 9.071,0.595 c 3.021,0.219 6.069,0.34 9.012,0.688 2.932,0.366 5.847,0.989 8.296,2.412 1.239,0.715 2.27,1.575 3.228,2.697 0.856,1.011 1.619,2.267 2.137,3.578 1.065,2.647 1.51,5.574 1.662,8.529 0.167,2.953 0.058,5.978 0.039,9.014 -0.059,6.065 -0.059,12.147 0.05,18.213 0.234,12.141 0.791,24.276 1.665,36.388 0.868,12.108 2.09,24.216 3.547,36.245 0.657,5.977 1.117,11.984 1.024,17.944 -0.007,1.492 -0.127,2.973 -0.189,4.458 -0.174,1.469 -0.243,2.958 -0.5,4.409 l -0.343,2.185 c -0.114,0.728 -0.315,1.433 -0.467,2.152 -0.278,1.447 -0.763,2.822 -1.196,4.217 -1.004,2.723 -2.198,5.397 -3.915,7.711 -0.767,1.227 -1.778,2.252 -2.733,3.325 l -0.36,0.4 -0.409,0.352 -0.816,0.704 c -0.544,0.446 -1.082,0.996 -1.631,1.361 -4.692,3.452 -10.396,5.182 -16.255,6.031 -5.875,0.851 -11.906,0.905 -17.971,1.066 l -18.175,0.453 -18.176,0.452 -18.173,0.517 c -12.116,0.344 -24.217,0.701 -36.304,0.422 -12.079,-0.278 -24.158,-1.199 -36.027,-3.416 -5.915,-1.087 -11.871,-2.419 -17.005,-5.446 -0.629,-0.374 -1.28,-0.786 -1.839,-1.205 -0.596,-0.464 -1.213,-0.916 -1.792,-1.39 l -1.614,-1.493 -1.5,-1.647 c -1.916,-2.275 -3.478,-4.847 -4.751,-7.554 -2.541,-5.434 -3.991,-11.345 -5.006,-17.289 -0.51,-2.98 -0.89,-5.975 -1.262,-8.985 C -5.785,114.08 -6.076,111.07 -6.41,108.061 -6.99,102.034 -7.501,95.996 -7.767,89.944 -7.952,86.921 -8.008,83.893 -8.13,80.866 -8.173,77.838 -8.278,74.81 -8.258,71.781 -8.317,59.666 -7.785,47.548 -6.714,35.478 -6.16,29.445 -5.512,23.418 -4.67,17.417 -4.26,14.416 -3.883,11.405 -3.228,8.447 -2.579,5.495 -1.608,2.579 0,0" /></g><g
           transform="translate(130.4457,175.769)"
           id="g52"><path
             id="path54"
             style="fill:#000000;fill-opacity:1;fill-rule:nonzero;stroke:none"
             d="M 0,0 C 0,0 -0.073,-0.024 -0.214,-0.07 -0.354,-0.116 -0.573,-0.18 -0.813,-0.296 -1.309,-0.501 -2.02,-0.88 -2.8,-1.495 c -0.384,-0.322 -0.8,-0.683 -1.225,-1.114 -0.42,-0.439 -0.856,-0.935 -1.319,-1.476 -0.884,-1.105 -1.99,-2.411 -2.969,-3.792 -1.015,-1.377 -1.78,-2.916 -1.934,-4.614 -0.148,-1.677 0.274,-3.696 1.376,-5.524 0.55,-0.93 1.237,-1.744 2.126,-2.5 0.81,-0.729 1.839,-1.319 2.9,-1.743 2.128,-0.888 4.569,-1.09 6.798,-0.598 1.115,0.234 2.182,0.612 3.151,1.129 0.955,0.501 1.896,1.19 2.613,1.871 1.568,1.439 2.635,3.326 3.233,5.226 0.57,1.916 0.681,3.859 0.317,5.596 l -0.122,0.578 c -0.078,0.244 -0.156,0.487 -0.233,0.727 -0.176,0.441 -0.286,0.711 -0.489,1.105 -0.374,0.756 -0.881,1.428 -1.403,2.047 -1.053,1.245 -2.31,2.165 -3.49,2.857 -1.195,0.674 -2.337,1.121 -3.317,1.363 -0.98,0.236 -1.788,0.324 -2.344,0.346 -0.561,0.008 -0.861,0.012 -0.861,0.012 l -0.059,0.294 c 0,0 0.299,0.091 0.86,0.261 0.57,0.143 1.433,0.293 2.556,0.282 1.12,-0.014 2.493,-0.224 3.983,-0.768 1.488,-0.539 3.099,-1.418 4.584,-2.775 0.721,-0.699 1.439,-1.483 2.034,-2.43 0.304,-0.441 0.611,-1.081 0.828,-1.566 0.093,-0.235 0.186,-0.472 0.28,-0.71 l 0.036,-0.09 0.043,-0.133 0.015,-0.053 0.059,-0.214 0.113,-0.431 c 0.284,-1.154 0.423,-2.385 0.32,-3.619 -0.083,-1.232 -0.307,-2.482 -0.754,-3.673 -0.879,-2.375 -2.38,-4.608 -4.463,-6.247 -1.091,-0.866 -2.2,-1.469 -3.459,-1.923 -1.253,-0.422 -2.553,-0.642 -3.838,-0.693 -2.577,-0.098 -5.076,0.444 -7.341,1.384 -1.136,0.485 -2.195,1.049 -3.227,1.756 -0.954,0.67 -1.943,1.471 -2.729,2.378 -1.616,1.787 -2.779,4.127 -2.722,6.623 0.022,1.233 0.347,2.403 0.842,3.408 0.494,1 1.091,1.853 1.692,2.607 1.259,1.476 2.419,2.614 3.567,3.643 1.133,1.024 2.285,1.798 3.31,2.278 1.035,0.482 1.915,0.653 2.522,0.702 0.308,0.029 0.522,0.015 0.672,0.011 0.148,-0.004 0.225,-0.006 0.225,-0.006 z" /></g><g
           transform="translate(256.506,231.6073)"
           id="g56"><path
             id="path58"
             style="fill:#000000;fill-opacity:1;fill-rule:nonzero;stroke:none"
             d="m 0,0 c 0,0 0.149,0.647 0.437,1.9 0.145,0.627 0.324,1.406 0.536,2.33 0.182,0.932 0.392,2.01 0.63,3.231 0.905,4.887 1.981,12.131 2.183,21.408 0.184,9.256 -0.531,20.588 -3.579,33.125 -3.025,12.5 -8.419,26.248 -17.374,39.309 -4.448,6.536 -9.851,12.812 -16.101,18.59 -6.28,5.733 -13.516,10.904 -21.407,15.251 -15.844,8.727 -34.576,14.177 -54.252,15.586 -9.84,0.704 -19.923,0.29 -29.945,-1.257 -1.25,-0.208 -2.503,-0.417 -3.757,-0.625 l -0.941,-0.157 -0.236,-0.039 -0.201,-0.045 -0.471,-0.104 -1.886,-0.416 c -1.258,-0.277 -2.518,-0.556 -3.78,-0.834 -1.25,-0.298 -2.461,-0.666 -3.696,-0.995 -1.229,-0.347 -2.466,-0.657 -3.691,-1.035 l -3.667,-1.21 c -2.466,-0.753 -4.851,-1.75 -7.27,-2.668 -9.626,-3.808 -18.866,-8.797 -27.475,-14.756 -8.601,-5.963 -16.633,-12.847 -23.683,-20.635 l -2.599,-2.959 -1.298,-1.48 -1.224,-1.541 -2.449,-3.082 c -0.808,-1.034 -1.536,-2.125 -2.309,-3.184 -0.739,-1.067 -1.573,-2.134 -2.235,-3.2 l -2.142,-3.349 c -0.352,-0.56 -0.726,-1.114 -1.058,-1.677 l -0.967,-1.696 -1.935,-3.39 c -4.964,-9.207 -8.77,-18.988 -11.455,-28.978 -5.275,-20.016 -5.859,-40.886 -2.158,-60.262 3.694,-19.374 11.711,-37.158 22.043,-52.007 10.325,-14.903 23.058,-26.832 36.269,-35.523 6.621,-4.335 13.358,-7.881 19.994,-10.721 6.658,-2.809 13.178,-4.917 19.47,-6.382 12.544,-2.938 23.944,-3.283 33.139,-2.318 4.612,0.469 8.659,1.368 12.152,2.234 1.716,0.54 3.338,0.945 4.766,1.486 1.424,0.55 2.756,0.96 3.882,1.488 1.136,0.505 2.14,0.951 3.006,1.337 0.84,0.44 1.546,0.812 2.115,1.11 1.137,0.602 1.724,0.912 1.724,0.912 0,0 -0.58,-0.323 -1.704,-0.948 -0.563,-0.311 -1.263,-0.698 -2.094,-1.157 -0.86,-0.405 -1.855,-0.874 -2.983,-1.404 -1.118,-0.553 -2.442,-0.992 -3.86,-1.575 -1.423,-0.574 -3.04,-1.015 -4.755,-1.594 -3.487,-0.953 -7.547,-1.927 -12.182,-2.469 -9.248,-1.118 -20.725,-0.959 -33.463,1.811 -6.336,1.369 -13.004,3.405 -19.769,6.136 -6.759,2.767 -13.604,6.32 -20.359,10.639 -13.47,8.675 -26.503,20.645 -37.138,35.68 -10.639,14.979 -19.022,32.982 -22.81,52.784 -3.832,19.724 -3.313,41.007 2.008,61.456 2.708,10.208 6.562,20.209 11.611,29.646 l 1.989,3.511 0.997,1.757 c 0.339,0.577 0.705,1.123 1.057,1.686 l 2.131,3.356 c 0.736,1.187 1.54,2.214 2.307,3.33 0.787,1.086 1.53,2.206 2.353,3.266 l 2.495,3.161 1.247,1.581 1.322,1.518 2.654,3.03 c 7.236,7.94 15.46,14.944 24.258,21.002 8.806,6.053 18.248,11.111 28.08,14.965 2.471,0.93 4.908,1.937 7.426,2.699 l 3.745,1.221 c 1.256,0.384 2.538,0.702 3.803,1.054 1.269,0.335 2.538,0.711 3.801,1.007 1.262,0.275 2.523,0.549 3.782,0.823 l 1.887,0.41 0.472,0.102 0.27,0.058 0.24,0.04 0.961,0.157 c 1.281,0.209 2.56,0.417 3.838,0.626 10.233,1.546 20.511,1.933 30.534,1.185 20.055,-1.447 39.079,-7.239 55.129,-16.274 8.048,-4.541 15.302,-9.839 21.653,-15.745 6.305,-5.943 11.734,-12.377 16.186,-19.055 8.995,-13.332 14.22,-27.345 17.065,-40 C 4.162,49.552 4.698,38.145 4.367,28.852 4.036,19.535 2.758,12.304 1.761,7.429 1.497,6.212 1.264,5.137 1.063,4.209 0.831,3.289 0.635,2.514 0.478,1.891 0.163,0.644 0,0 0,0" /></g></g></g></g></svg>